<svg width="19" height="22" viewBox="0 0 19 22" fill="none" xmlns="http://www.w3.org/2000/svg">
<path opacity="0.4" fill-rule="evenodd" clip-rule="evenodd" d="M10.3536 0.723074C10.1545 1.28727 10.4504 1.90607 11.0146 2.1052L11.7324 2.35853C13.1524 2.85973 14.1322 3.20722 14.8624 3.5615C15.5679 3.90376 15.9407 4.2072 16.1949 4.56654C16.4492 4.92587 16.6112 5.37843 16.6992 6.15758C16.7902 6.96409 16.7918 8.00364 16.7918 9.50955V12.1577C16.7918 13.6636 16.7902 14.7032 16.6992 15.5097C16.6112 16.2888 16.4492 16.7414 16.1949 17.1007C15.9407 17.4601 15.5679 17.7635 14.8624 18.1058C14.1322 18.46 13.1524 18.8075 11.7324 19.3087L11.0146 19.5621C10.4504 19.7612 10.1545 20.38 10.3536 20.9442C10.5527 21.5084 11.1715 21.8043 11.7357 21.6052L12.5128 21.331C13.8592 20.8558 14.9551 20.469 15.8082 20.0551C16.6985 19.6232 17.422 19.1177 17.9637 18.3521C18.5053 17.5866 18.7412 16.7361 18.8522 15.7527C18.9585 14.8105 18.9585 13.6485 18.9585 12.2206V9.44665C18.9585 8.0188 18.9585 6.85672 18.8522 5.91453C18.7412 4.93118 18.5053 4.08066 17.9637 3.31513C17.422 2.5496 16.6985 2.0441 15.8082 1.61214C14.9551 1.19826 13.8593 0.811513 12.5128 0.336319L11.7357 0.0620557C11.1715 -0.137073 10.5527 0.158874 10.3536 0.723074Z" fill="white"/>
<path d="M1.08333 11.923C0.485025 11.923 1.80331e-07 11.438 1.54178e-07 10.8397C1.28025e-07 10.2414 0.485025 9.75635 1.08333 9.75635L8.12504 9.75635L8.12502 9.11257C8.12489 8.92229 8.12472 8.68867 8.14863 8.49753L8.14908 8.4939C8.16616 8.35692 8.24399 7.73287 8.85671 7.43565C9.47077 7.13778 10.0126 7.46487 10.1298 7.53564L10.6373 7.90304C11.0445 8.22222 11.6018 8.66173 12.0254 9.07387C12.2368 9.27952 12.4548 9.51489 12.6269 9.76504C12.7798 9.9874 13 10.3668 13 10.8333C13 11.2999 12.7798 11.6793 12.6269 11.9016C12.4548 12.1518 12.2368 12.3871 12.0254 12.5928C11.6018 13.0049 11.0445 13.4444 10.6374 13.7636L10.1298 14.131C10.0126 14.2018 9.47077 14.5289 8.85671 14.231C8.24398 13.9338 8.16616 13.3097 8.14908 13.1728L8.14863 13.1691C8.12472 12.978 8.12489 12.7444 8.12502 12.5541L8.12504 11.923L1.08333 11.923Z" fill="white"/>
</svg>
