<svg width="20" height="20" viewBox="0 0 26 26" fill="none" xmlns="http://www.w3.org/2000/svg">
<path fill-rule="evenodd" clip-rule="evenodd" d="M11.6667 0C5.22335 0 9.53674e-06 5.22334 9.53674e-06 11.6667C9.53674e-06 18.11 5.22335 23.3333 11.6667 23.3333C14.4682 23.3333 17.039 22.3459 19.0502 20.7001L23.6751 25.325C24.1307 25.7806 24.8694 25.7806 25.325 25.325C25.7806 24.8693 25.7806 24.1307 25.325 23.675L20.7001 19.0502C22.3459 17.039 23.3333 14.4681 23.3333 11.6667C23.3333 5.22334 18.11 0 11.6667 0ZM2.33334 11.6667C2.33334 6.51201 6.51202 2.33333 11.6667 2.33333C16.8213 2.33333 21 6.51201 21 11.6667C21 16.8213 16.8213 21 11.6667 21C6.51202 21 2.33334 16.8213 2.33334 11.6667Z" fill="#161616"/>
</svg>
